# xmcd
#
# Track frame offsets: 
#        150
#        18056
#        35676
#        50871
#        71355
#        96604
#        113837
#        133471
#        155746
#        172190
#        189187
#        207858
#
# Disc length: 3004 seconds
#
# Revision: 2
# Processed by: cddbd v1.5.2PL0 Copyright (c) Steve Scherf et al.
# Submitted via: ExactAudioCopy v1.0b3
#
DISCID=b20bba0c
DTITLE=Carcass - Heartwork
DYEAR=1993
DGENRE=Death Metal
TTITLE0=Buried Dreams
TTITLE1=Carnal Forge
TTITLE2=No Love Lost
TTITLE3=Heartwork
TTITLE4=Embodiment
TTITLE5=This Mortal Coil
TTITLE6=Arbeit Macht Fleisch
TTITLE7=Blind Bleeding The Blind
TTITLE8=Doctrinal Expletives
TTITLE9=Death Certificate
TTITLE10=This Is Your Life
TTITLE11=Rot'n'roll
EXTD=Japanese ltd. edition 2008 reissue\nTOY'S FACTORY TFCK-87454
EXTT0=
EXTT1=
EXTT2=
EXTT3=
EXTT4=
EXTT5=
EXTT6=
EXTT7=
EXTT8=
EXTT9=
EXTT10=
EXTT11=
PLAYORDER=
